<svg width="94" height="90" viewBox="0 0 94 90" fill="none" xmlns="http://www.w3.org/2000/svg">
<path d="M16.0938 44.5475L44.5484 16.0928L73.0031 44.5475L44.5484 73.0021L16.0938 44.5475Z" fill="white"/>
<path d="M89.0949 10.3406C89.0949 7.59808 88.0054 4.96792 86.0662 3.02868C84.127 1.08945 81.4968 0 78.7543 0C74.1353 0 70.2708 3.04872 68.9427 7.22782H20.1522C18.8241 3.04872 14.9596 0 10.3406 0C7.59808 0 4.96792 1.08945 3.02868 3.02868C1.08945 4.96792 0 7.59808 0 10.3406C0.0046039 12.5325 0.708248 14.6658 2.00863 16.4304C3.30901 18.1949 5.13832 19.4987 7.23061 20.1522V68.9427C5.13832 69.5962 3.30901 70.8999 2.00863 72.6645C0.708248 74.429 0.0046039 76.5624 0 78.7543C0 81.4968 1.08945 84.127 3.02868 86.0662C4.96792 88.0054 7.59808 89.0949 10.3406 89.0949C14.5336 89.0949 18.1225 86.5891 19.7457 83.003H69.3492C70.1638 84.8163 71.4846 86.3558 73.1531 87.4365C74.8215 88.5171 76.7665 89.093 78.7543 89.0949C80.1582 89.7248 81.685 90.0329 83.2233 89.9969C84.7616 89.9609 86.2723 89.5816 87.6452 88.8867C89.018 88.1918 90.2182 87.1989 91.158 85.9806C92.0979 84.7623 92.7536 83.3493 93.0772 81.8451C93.4008 80.3408 93.3842 78.7832 93.0286 77.2862C92.6729 75.7892 91.9872 74.3906 91.0216 73.1926C90.056 71.9946 88.8349 71.0276 87.4476 70.3621C86.0602 69.6967 84.5417 69.3497 83.003 69.3465V19.7457C84.8163 18.9311 86.3558 17.6103 87.4365 15.9418C88.5171 14.2734 89.093 12.3284 89.0949 10.3406ZM80.2188 68.5613C79.7371 68.4917 79.2555 68.4137 78.7543 68.4137C76.0118 68.4137 73.3817 69.5032 71.4424 71.4424C69.5032 73.3817 68.4137 76.0118 68.4137 78.7543C68.4137 79.2555 68.4917 79.7371 68.5613 80.2188H20.5336C20.6032 79.7371 20.6812 79.2555 20.6812 78.7543C20.6812 76.0118 19.5917 73.3817 17.6525 71.4424C15.7132 69.5032 13.0831 68.4137 10.3406 68.4137C10.2292 68.4137 10.1262 68.4416 10.0148 68.4472V20.6477C10.1262 20.6505 10.2292 20.6812 10.3406 20.6812C13.0831 20.6812 15.7132 19.5917 17.6525 17.6525C19.5917 15.7132 20.6812 13.0831 20.6812 10.3406C20.6812 10.2292 20.6505 10.1234 20.6477 10.0148H68.4472C68.4444 10.1262 68.4137 10.2292 68.4137 10.3406C68.4137 13.0831 69.5032 15.7132 71.4424 17.6525C73.3817 19.5917 76.0118 20.6812 78.7543 20.6812C79.2555 20.6812 79.7344 20.6032 80.2188 20.5336V68.5613Z" fill="white"/>
</svg>
